<?xml version="1.0" encoding="UTF-8"?>
<svg id="SVGDoc" width="122" height="122" xmlns="http://www.w3.org/2000/svg" version="1.1" xmlns:xlink="http://www.w3.org/1999/xlink" xmlns:avocode="https://avocode.com/" viewBox="0 0 122 122"><defs><clipPath id="ClipPath1027"><path d="M61,82c-11.59799,0 -21,-9.40198 -21,-21.00039c0,-11.59796 9.40201,-20.99949 21,-20.99949c11.59799,0 21,9.40153 21,20.99949c0,11.59841 -9.40201,21.00039 -21,21.00039z" fill="#ffffff"></path></clipPath><clipPath id="ClipPath1034"><path d="M54.00002,74.99583v0v-27.99199v0l18.99435,13.99577v0z" fill="#ffffff"></path></clipPath></defs><desc>Generated with Avocode.</desc><g><g><title>Ellipse 1 copy</title><path d="M61,82c-11.59799,0 -21,-9.40198 -21,-21.00039c0,-11.59796 9.40201,-20.99949 21,-20.99949c11.59799,0 21,9.40153 21,20.99949c0,11.59841 -9.40201,21.00039 -21,21.00039z" fill-opacity="0" fill="#ffffff" stroke-dashoffset="0" stroke-dasharray="" stroke-linejoin="miter" stroke-linecap="butt" stroke-opacity="1" stroke="#000000" stroke-miterlimit="20" stroke-width="4" clip-path="url(&quot;#ClipPath1027&quot;)"></path></g><g><title>Rectangle 2 copy</title><path d="M54.00002,74.99583v0v-27.99199v0l18.99435,13.99577v0z" fill-opacity="0" fill="#ffffff" stroke-dashoffset="0" stroke-dasharray="" stroke-linejoin="miter" stroke-linecap="butt" stroke-opacity="1" stroke="#000000" stroke-miterlimit="20" stroke-width="4" clip-path="url(&quot;#ClipPath1034&quot;)"></path></g></g></svg>