<svg id="Слой_1" data-name="Слой 1" xmlns="http://www.w3.org/2000/svg" viewBox="0 0 648.79782 45.12724"><defs><style>.cls-1{fill:none;}</style></defs><path d="M141.03789,40.15779c4.067,3.988,10.666,4.958,17.083,4.958,6.425,0,12.824-.818,16.889-4.817,4.063-3.997,5.667-10.048,5.667-17.412s-1.424-13.233-5.49-17.232c-4.065-3.999-10.641-4.954-17.066-4.954s-12.857.813-16.922,4.813c-4.065,3.999-5.634,10.009-5.634,17.373,0,7.374,1.399,13.273,5.473,17.271m7.339-27.799c2.261-2.585,5.9-3.034,9.744-3.034s7.483.449,9.744,3.034c2.261,2.586,2.409,6.055,2.409,10.537s-.148,8.038-2.408,10.622c-2.261,2.585-6.362,3.043-9.745,3.043-3.378,0-7.474-.454-9.736-3.033-2.266-2.584-2.417-6.144-2.417-10.632,0-4.482.148-7.951,2.409-10.537m-31.943,4.761a100.82946,100.82946,0,0,0-13.752-.594c-3.338.18-9.73.46-13.496,2.465-3.061,1.631-4.859,3.113-5.812,5.866a16.90537,16.90537,0,0,0-.733,7.061c.558,4.96,2.282,7.43,4.609,9.151,3.675,2.718,8.306,4.151,17.887,3.942,12.752-.278,16.106-4.402,17.797-7.328,2.88-4.983,2.381-12.852,2.291-17.678-.038-2-.332-8.589-3.403-12.821-4.204-5.792-11.798-7.548-19.679-7.124a55.69747,55.69747,0,0,0-14.979,2.661c-.888.334-.773,1.093-.783,1.553-.032,1.529-.15,5.485-.143,7.096.003.709.875,1.04,1.605.781a56.41244,56.41244,0,0,1,12.617-3.029c4.666-.379,11.005-.001,12.757,2.65.899,1.36.879,3.487.995,5.611.137,2.497.682,13.053-.702,15.965-1.205,2.533-5.491,2.924-8.039,3.041-4.698.214-8.163.025-10.397-1.078a5.11948,5.11948,0,0,1-2.669-4.324c-.084-1.624-.059-2.461.68-3.423,1.651-2.152,5.968-2.613,10.407-2.785a83.88313,83.88313,0,0,1,12.776.872" transform="translate(0.00027 0.00045)"/><path d="M280.172,1.49049h-9.093a.69769.69769,0,0,0-.704.69v41.491a.69775.69775,0,0,0,.704.687h9.093a.7021.7021,0,0,0,.706-.687V2.1805a.702.702,0,0,0-.706-.69" transform="translate(0.00027 0.00045)"/><path d="M252.33211,4.6408c-3.703-3.443-9.648-3.861-14.464-3.861-6.217,0-10.18,1.324-12.58,2.561h-1.668c-2.347-1.297-6.489-2.561-12.993-2.561-4.816,0-10.719.353-14.356,3.406-3.009,2.525-3.706,5.89-3.706,12.798v26.666a.69988.69988,0,0,0,.704.688h9.088a.70081.70081,0,0,0,.708-.688v-.093s-.002-16.858-.002-21.854c0-3.96-.156-8.086.7-9.624.666-1.197,1.71-2.533,6.648-2.533,5.889,0,7.278.413,8.206,3.02a9.5406,9.5406,0,0,1,.379,2.564v28.52a.69988.69988,0,0,0,.704.688h9.095a.69989.69989,0,0,0,.704-.688v-28.52a9.50028,9.50028,0,0,1,.379-2.564c.928-2.607,2.317-3.02,8.206-3.02,4.937,0,5.982,1.336,6.648,2.533.855,1.538.7,5.664.7,9.624,0,4.996-.003,21.854-.003,21.854v.093a.70144.70144,0,0,0,.708.688h9.089a.69989.69989,0,0,0,.704-.688V18.6078c0-7.168-.233-10.838-3.598-13.967" transform="translate(0.00027 0.00045)"/><path d="M69.0956,1.49049h-9.093a.69855.69855,0,0,0-.705.69v41.491a.69861.69861,0,0,0,.705.687h9.093a.70209.70209,0,0,0,.706-.687V2.1805a.702.702,0,0,0-.706-.69" transform="translate(0.00027 0.00045)"/><path d="M30.8716,22.572,47.0276,2.573a.66367.66367,0,0,0-.516-1.081H34.8646a.88374.88374,0,0,0-.706.352L23.4836,15.993,13.0696,1.852a.88571.88571,0,0,0-.712-.36H.6756a.66344.66344,0,0,0-.518,1.079l16.354,20.372L.1386,43.291a.66359.66359,0,0,0,.526,1.068h11.675a.88506.88506,0,0,0,.717-.367l10.905-14.099,10.331,14.104a.88387.88387,0,0,0,.713.362h11.535a.66392.66392,0,0,0,.522-1.073Z" transform="translate(0.00027 0.00045)"/><polygon points="326.065 13.353 326.065 8.68 338.65 1.454 342.201 1.454 342.201 44.317 337.092 44.317 337.092 6.936 326.065 13.353"/><polygon points="352.419 13.353 352.419 8.68 365.004 1.454 368.555 1.454 368.555 44.317 363.446 44.317 363.446 6.936 352.419 13.353"/><polygon points="400.593 1.516 400.593 40.267 419.159 40.267 419.159 44.379 395.547 44.379 395.547 1.516 400.593 1.516"/><path d="M427.944,1.14149a2.96044,2.96044,0,0,1,3.115,3.052,3.08416,3.08416,0,0,1-6.168,0,2.94464,2.94464,0,0,1,3.053-3.052m2.492,43.237h-4.922V13.2275h4.922Z" transform="translate(0.00027 0.00045)"/><path d="M458.22321,13.2276v3.925h-10.591v18.379a5.18379,5.18379,0,0,0,5.42,5.483,11.49173,11.49173,0,0,0,5.171-1.62v4.298a15.48294,15.48294,0,0,1-6.106,1.434c-5.544,0-9.407-3.801-9.407-9.097V17.1526h-5.981v-3.925h5.981V4.4426h4.922v8.785Z" transform="translate(0.00027 0.00045)"/><path d="M477.28909,12.4798c7.663,0,12.709,6.293,12.709,15.264,0,.748,0,1.433-.062,2.181h-22.117c.249,6.666,4.735,11.276,10.903,11.276a17.50226,17.50226,0,0,0,9.158-2.99v4.485a21.8107,21.8107,0,0,1-9.781,2.431c-8.972,0-15.264-6.854-15.264-16.573,0-9.407,6.043-16.074,14.454-16.074m-.187,3.925c-5.171,0-8.909,4.05-9.283,10.031h17.32c-.062-5.919-3.364-10.031-8.037-10.031" transform="translate(0.00027 0.00045)"/><path d="M522.83972,5.812V18.771a31.13737,31.13737,0,0,1,5.233-.561c8.349,0,13.894,5.42,13.894,13.208,0,7.975-6.231,13.707-15.13995,13.707a21.865,21.865,0,0,1-9.843-2.431V37.648a16.89012,16.89012,0,0,0,9.47,3.178c6.043,0,10.342-3.863,10.342-9.408,0-5.295-4.112-9.22-10.093-9.22a35.47215,35.47215,0,0,0-8.411,1.121V1.514h21.619V5.812Z" transform="translate(0.00027 0.00045)"/><path d="M570.87531,45.125c-12.149,0-20.746-9.221-20.746-22.18s8.535-22.179,20.684-22.179a25.39307,25.39307,0,0,1,12.46,3.426V9.177c-4.05-2.742-7.975-4.175-11.9-4.175-9.469,0-16.073,7.352-16.073,17.943,0,10.529,6.541,17.943,15.887,17.943a22.26031,22.26031,0,0,0,8.846-2.056V26.247h-10.279V22.322h15.077V41.511a30.23432,30.23432,0,0,1-13.956,3.614" transform="translate(0.00027 0.00045)"/><polygon points="606.241 1.383 620.931 22.124 620.931 1.383 624.832 1.383 624.832 28.772 621.21 28.772 606.52 8.031 606.52 28.772 602.618 28.772 602.618 1.383 606.241 1.383"/><polygon points="648.479 1.383 648.479 4.727 636.496 4.727 636.496 13.207 646.927 13.207 646.927 16.511 636.496 16.511 636.496 25.428 648.798 25.428 648.798 28.772 632.396 28.772 632.396 1.383 648.479 1.383"/><rect class="cls-1" x="0.00027" y="0.00094" width="648.797" height="45.126"/></svg>