<svg id="Слой_1" data-name="Слой 1" xmlns="http://www.w3.org/2000/svg" viewBox="0 0 164.8269 164.82684"><defs><style>.cls-1{fill:#ff6900;}</style></defs><path class="cls-1" d="M240.58655,22.20691c0,27.328,1.577,49.695,17.125,65.226,15.545,15.535,37.932,17.107,65.288,17.107s49.743-1.572,65.288-17.107c15.53808-15.52911,17.12469-37.88116,17.12591-65.19494v-.06177c-.00122-27.34894-1.60577-49.72016-17.17993-65.24231-15.53564-15.47473-37.86328-17.21716-65.14813-17.22083h-.1709c-27.31909.00367-49.68115,1.767-65.21,17.2818C242.16351-27.47711,240.58655-5.12109,240.58655,22.20691Zm76.347,30.463a1.02851,1.02851,0,0,1-1.032,1.012h-14.057a1.06038,1.06038,0,0,1-.40625-.08044,1.01627,1.01627,0,0,1-.63794-.93195V15.9115a1.01046,1.01046,0,0,1,.609-.91535,1.04843,1.04843,0,0,1,.43518-.09924h14.057a1.02779,1.02779,0,0,1,1.032,1.015Zm39.621-61.08a1.02787,1.02787,0,0,1,1.037-1.016h13.386a1.04687,1.04687,0,0,1,.9574.62122.98471.98471,0,0,1,.08276.39557v61.079a1.0133,1.0133,0,0,1-.71826.94787,1.02363,1.02363,0,0,1-.3219.06433h-13.386a1.0384,1.0384,0,0,1-.69415-.27288c-.01147-.01026-.02765-.0149-.03864-.02564a.99787.99787,0,0,1-.30426-.71344Zm-83.30926.0008a1.00137,1.00137,0,0,1,.08093-.39557,1.03074,1.03074,0,0,1,.95136-.62122h38.628c10.095,0,20.649.46,25.853,5.672,5.229,5.235,5.697,15.77,5.697,25.877v30.547a1.03114,1.03114,0,0,1-1.038,1.012h-13.379a1.02873,1.02873,0,0,1-.52459-.15893.99716.99716,0,0,1-.5177-.85327v-31.714a55.43838,55.43838,0,0,0-.35065-6.86945A17.71365,17.71365,0,0,0,327.4873,9.4491a8.12443,8.12443,0,0,0-1.68-2.58142c-2.458-2.466-7.04205-3.031-11.809-3.149h-24.253a1.02834,1.02834,0,0,0-1.035,1.014V52.66968a1.1827,1.1827,0,0,1-1.04468,1.0122h-13.388a1.01782,1.01782,0,0,1-.47565-.12878,1.00322,1.00322,0,0,1-.55664-.88342Z" transform="translate(-240.58655 60.28693)"/></svg>