<svg id="Слой_1" data-name="Слой 1" xmlns="http://www.w3.org/2000/svg" viewBox="0 0 106.55499 28.72437"><path d="M435.05156-53.79972a.17993.17993,0,0,1-.181.1764h-2.333a.179.179,0,0,1-.18-.1764V-64.444a.17893.17893,0,0,1,.18-.177h2.333a.17983.17983,0,0,1,.181.177Zm-4.803,0a.17924.17924,0,0,1-.181.1764h-2.331a.18011.18011,0,0,1-.182-.1764v-5.5267a3.67947,3.67947,0,0,0-.555-2.4551,3.099,3.099,0,0,0-2.059-.5488h-4.226a.17952.17952,0,0,0-.181.1765v8.3541a.18015.18015,0,0,1-.182.1764h-2.333a.17839.17839,0,0,1-.18-.1764V-64.444a.1783.1783,0,0,1,.18-.177h6.732c1.759,0,3.598.08034,4.506.98847.911.9125.992,2.7482.992,4.5095Zm-4.796,0a.179.179,0,0,1-.18.1764h-2.45a.18011.18011,0,0,1-.182-.1764v-6.4057a.18.18,0,0,1,.182-.1768h2.45a.1789.1789,0,0,1,.18.1768Zm12.425-16.68361c-2.71-2.6996-6.606-3.00126-11.368-3.00126-4.768,0-8.67.30515-11.379,3.01172-2.708,2.70605-2.983,6.602-2.983,11.36445s.275,8.6603,2.984,11.3669c2.71,2.7072,6.611,2.9813,11.378,2.9813s8.66895-.2741,11.378-2.9813,2.984-6.6045,2.984-11.3669C440.87157-63.87692,440.59252-67.77745,437.87755-70.48333Z" transform="translate(-412.14757 73.48459)"/><path d="M469.72356-53.37752h-1.893V-64.86425h1.893Z" transform="translate(-412.14757 73.48459)"/><path d="M474.96355-53.37752h-2.209v-2.0617h2.209Z" transform="translate(-412.14757 73.48459)"/><path d="M482.47356-53.37752a5.54687,5.54687,0,0,1-5.743-5.6383,5.65047,5.65047,0,0,1,5.764-5.84843,5.48886,5.48886,0,0,1,3.976,1.53563l-1.051,1.3675a4.29376,4.29376,0,0,0-2.798-1.052,3.79646,3.79646,0,0,0-3.893,3.9973,3.74357,3.74357,0,0,0,3.85,3.8289,3.95964,3.95964,0,0,0,2.841-1.073l.946,1.3884A5.37652,5.37652,0,0,1,482.47356-53.37752Z" transform="translate(-412.14757 73.48459)"/><path d="M497.51256-59.07872a3.62434,3.62434,0,0,0-3.808-3.9343,3.56051,3.56051,0,0,0-3.745,3.9131,3.54775,3.54775,0,0,0,3.745,3.871A3.56855,3.56855,0,0,0,497.51256-59.07872Zm-9.509-.0212a5.54221,5.54221,0,0,1,5.701-5.76433,5.54019,5.54019,0,0,1,5.743,5.76433,5.53012,5.53012,0,0,1-5.743,5.7224A5.53174,5.53174,0,0,1,488.00353-59.09992Z" transform="translate(-412.14757 73.48459)"/><path d="M461.07555-64.86483a5.80789,5.80789,0,0,0-4.144,1.91421,3.36119,3.36119,0,0,0-3.303-1.91421,5.58847,5.58847,0,0,0-3.703,1.55941v-1.55941h-1.872v11.48451h1.872v-8.2868a4.85561,4.85561,0,0,1,3.092-1.4726c1.347,0,2.483.7783,2.483,2.882v6.8774h1.851v-7.5716l-.021-.61a4.41833,4.41833,0,0,1,3.156-1.5358c1.304,0,2.44.631,2.44,2.777v6.9404h1.873v-7.298C464.79955-63.58172,463.30553-64.86483,461.07555-64.86483Z" transform="translate(-412.14757 73.48459)"/><path d="M514.97857-64.86483a5.80819,5.80819,0,0,0-4.144,1.91421,3.36021,3.36021,0,0,0-3.303-1.91421,5.58847,5.58847,0,0,0-3.703,1.55941v-1.55941h-1.872v11.48451h1.872v-8.2868a4.85794,4.85794,0,0,1,3.093-1.4726c1.346,0,2.482.7783,2.482,2.882v6.8774h1.852v-7.5716l-.022-.61a4.41833,4.41833,0,0,1,3.15595-1.5358c1.304,0,2.441.631,2.441,2.777v6.9404h1.872v-7.298C518.70256-63.58172,517.20855-64.86483,514.97857-64.86483Z" transform="translate(-412.14757 73.48459)"/></svg>