<svg data-name="Слой 1" xmlns="http://www.w3.org/2000/svg" viewBox="0 0 21.19 21.189" fill="white">
  <path class="cls-1" d="M79.327 24.337a10.595 10.595 0 1 1 10.595-10.595 10.607 10.607 0 0 1-10.595 10.595Zm0-20.48a9.886 9.886 0 1 0 9.886 9.885 9.897 9.897 0 0 0-9.886-9.886Z" transform="translate(-68.732 -3.147)"/>
  <path class="cls-1" d="M74.927 19.586V8.672L86.84 14.13Zm.709-9.81v8.706l9.503-4.353Z" transform="translate(-68.732 -3.147)"/>
  <path class="cls-1" d="M76.47 17.207v-6.156l6.721 3.078Zm.284-5.714v5.273l5.756-2.637Z" transform="translate(-68.732 -3.147)"/>
  <path class="cls-1" d="M77.725 15.418V12.84l2.814 1.289Zm.283-2.136v1.695l1.85-.848Z" transform="translate(-68.732 -3.147)"/>
</svg>