<svg id="Слой_1" data-name="Слой 1" xmlns="http://www.w3.org/2000/svg" viewBox="0 0 8.88311 21.80495"><path d="M493.68292-56.00564a4.44639,4.44639,0,0,1-4.442-4.44116v-4.54614a4.44639,4.44639,0,0,1,4.442-4.44116,4.44622,4.44622,0,0,1,4.44116,4.44116v4.54614A4.44622,4.44622,0,0,1,493.68292-56.00564Zm0-12.614a3.63142,3.63142,0,0,0-3.62753,3.62674v4.54614a3.63142,3.63142,0,0,0,3.62753,3.62674,3.63125,3.63125,0,0,0,3.62673-3.62674v-4.54614A3.63125,3.63125,0,0,0,493.68292-68.61968Z" transform="translate(-489.24096 77.81058)"/><path d="M493.68292-63.16446a1.26168,1.26168,0,0,1-1.25982-1.25982v-1.98913a1.261,1.261,0,0,1,1.25982-1.259,1.26031,1.26031,0,0,1,1.259,1.259v1.98913A1.261,1.261,0,0,1,493.68292-63.16446Zm0-3.69355a.44551.44551,0,0,0-.44539.4446v1.98913a.44567.44567,0,0,0,.44539.44539.44551.44551,0,0,0,.44459-.44539v-1.98913A.44534.44534,0,0,0,493.68292-66.858Z" transform="translate(-489.24096 77.81058)"/><path d="M493.68252-73.30262a.407.407,0,0,1-.40721-.40721v-3.69354a.407.407,0,0,1,.40721-.40721.407.407,0,0,1,.40721.40721v3.69354A.407.407,0,0,1,493.68252-73.30262Z" transform="translate(-489.24096 77.81058)"/><path d="M493.68292-70.981l-2.65881-2.65881a.40705.40705,0,0,1,0-.57582.40705.40705,0,0,1,.57582,0l2.083,2.083,2.08219-2.083a.40705.40705,0,0,1,.57582,0,.40705.40705,0,0,1,0,.57582Z" transform="translate(-489.24096 77.81058)"/></svg>